<svg id="Layer_1" enable-background="new 0 0 512 512" viewBox="0 0 512 512" xmlns="http://www.w3.org/2000/svg"><path fill="#6366F1" d="m221.6 293.4h34.6c4.1 0 7.4 3.3 7.4 7.4v34.6c0 4.1-3.3 7.4-7.4 7.4h-10.5v50.2l30.9 30.9c1.4 1.5 2.2 3.4 2.2 5.3v37.8h86.8c22.3 0 40.5-18.3 40.5-40.5v-31.7h-52.5c-11.1 0-20.1-9-20.1-20.1v-34.1c0-11.1 9-20.1 20.1-20.1h52.5v-31l-.6-6.1c-1.4-8.3-5.4-16-11.3-21.9-.1-.1-.2-.2-.3-.3-.1-.1-.2-.2-.4-.3-.1-.1-.2-.2-.3-.3-.1-.1-.3-.2-.4-.3-.1-.1-.2-.2-.4-.3-.1-.1-.2-.2-.3-.3-.1-.1-.3-.2-.4-.3-.1-.1-.3-.2-.4-.3-.1-.1-.3-.2-.4-.3-.1-.1-.3-.2-.4-.3-.1-.1-.3-.2-.4-.3-.1-.1-.3-.2-.4-.3-.1-.1-.3-.2-.4-.3-.1-.1-.3-.2-.4-.3-.1-.1-.3-.2-.4-.3-.1-.1-.3-.2-.4-.3-.1-.1-.3-.2-.4-.3-.1-.1-.3-.2-.4-.3-.1-.1-.3-.2-.4-.3-.1-.1-.3-.2-.4-.3-.1-.1-.3-.2-.4-.3-.1-.1-.3-.2-.4-.3l-3.1-1.5c-.1-.1-.3-.1-.4-.2-.2-.1-.3-.1-.5-.2-.2-.1-.3-.1-.5-.2-.2-.1-.3-.1-.5-.2-.1-.1-.3-.1-.5-.2l-2.8-1-1.9-.5c-.2-.1-.3-.1-.5-.1-.2-.1-.3-.1-.5-.1-2.9-.7-5.6-.9-8.6-.9h-251.8c-9.6 0-18.5-3.1-26-8.4v185.4c0 22.3 18.2 40.5 40.5 40.5h6.6v-156.5c0-4.1 3.3-7.4 7.4-7.4s7.5 3.3 7.5 7.4v156.4h30.3v-88.6c0-4.1 3.3-7.4 7.4-7.4s7.4 3.3 7.4 7.4v88.6h69.1v-34.7l-30.9-30.8c-1.4-1.3-2.2-3.2-2.2-5.3v-53.2h-9.2c-4.1 0-7.4-3.3-7.4-7.4v-34.6c0-4.1 3.3-7.5 7.4-7.5zm27.2 14.9h-19.7v19.7h19.7zm157.3 27h-52.5c-2.9 0-5.2 2.4-5.2 5.2v34.1c0 2.9 2.4 5.2 5.2 5.2h52.5zm14.8-45.4v136.5c0 30.5-24.9 55.4-55.4 55.4h-237.3c-30.5 0-55.4-24.9-55.4-55.4v-206c0-.7.1-1.3.2-1.9-.2-1.3-.3-2.6-.3-3.9 0-15.3 7.9-29.3 20.6-37.3.4-54.9 45-99.2 100-99.2 19.4 0 37.6 5.5 52.9 15.1 15-37.7 51.6-63 92.9-63 55.2 0 100 44.8 100 100 0 25.9-9.9 49.6-26.1 67.4 5.1 8.5 7.8 18.2 7.8 28.3v64zm-331-67.5c5 6.9 12.5 11.1 20.9 12-8-11.7-13.4-25-15.8-39-4.6 5.3-7.2 12-7.2 19.3-.1 2.7.7 5.3 2.1 7.7zm121.9-35.4h-23.7v16h19.3c8.6 0 11.9-11.5 4.4-16zm-23.7-14.9h23.7c1.1-.7 2-1.6 2.8-2.6 3.8-5.6-.3-13.4-7.2-13.4h-19.3zm-14.8 45.8h-9.9c-4.1 0-7.4-3.3-7.4-7.4s3.3-7.4 7.4-7.4h9.9v-46.9h-9.9c-4.1 0-7.4-3.3-7.4-7.4s3.3-7.4 7.4-7.4h9.9v-9.3c0-4.1 3.3-7.5 7.4-7.5h18.9c4.1 0 7.4 3.3 7.4 7.4v9.3h21.7c4.1 0 7.4 3.3 7.4 7.4s-3.3 7.4-7.4 7.4h-21.7v46.9h21.7c4.1 0 7.4 3.3 7.4 7.4s-3.3 7.4-7.4 7.4h-21.7v16h-9.8c-4.1 0-7.4-3.3-7.4-7.4v-16zm34.7-78.7h-9.9v-16h9.9zm0 46.9h-9.9v-16h9.9z"/><path fill="#818CF8" d="m379.5 78.4c-14.4-14.4-33.5-22.4-53.5-22.4-41.8 0-75.7 34-75.7 75.7 0 11.8 2.7 23.1 7.8 33.3l-7.8 7.8 42.4 42.4 7.8-7.8c10.2 5.1 21.5 7.8 33.3 7.8 41.8 0 75.7-34 75.7-75.7 0-20-8-38.1-21.5-51.5l-7.8 7.8-42.4-42.4 7.8-7.8zm-38.7 122.7c-27.4 0-49.7-22.3-49.7-49.7s22.3-49.7 49.7-49.7 49.7 22.3 49.7 49.7-22.3 49.7-49.7 49.7z"/></svg>